# xmcd
#
# Track frame offsets:
#	150
#	12947
#	22435
#	33806
#	45478
#	54590
#	65684
#	75613
#	86564
#	95758
#	106794
#	115831
#	126108
#	137575
#	147664
#	158578
#	169118
#	181815
#	192292
#	204958
#	217534
#	228942
#	236957
#	245800
#	256724
#	267671
#	280331
#	291864
#	305098
#	313387
#	323186
#
# Disc length: 4457 seconds
#
# Revision: 0
# Processed by: cddbd v1.5.2PL0 Copyright (c) Steve Scherf et al.
# Submitted via: EasyCDDAExtractor 12.0.1.1
#
DISCID=c611671f
DTITLE=Buck Owens - Act Naturally: The Buck Owens Recordings 1953-1964 [cd4]
DYEAR=2008
DGENRE=Country
TTITLE0=Sweethearts In Heaven
TTITLE1=We're The Talk Of The Town
TTITLE2=Back Street Affair
TTITLE3=No Fool Like An Old Fool
TTITLE4=Love's Gonna Live Here
TTITLE5=Getting Used To Losing You
TTITLE6=Smooth Sailin'
TTITLE7=But I Do
TTITLE8=If You Ain't Lovin' You Ain't Livin'
TTITLE9=My Last Chance With You
TTITLE10=Down, Down, Down
TTITLE11=You Gotta Have A License
TTITLE12=High On A Hilltop
TTITLE13=It Tickles
TTITLE14=Whatcha Gonna Do Now
TTITLE15=I Always Get A Souvenir
TTITLE16=There'll Be No Other
TTITLE17=No Love Have I
TTITLE18=Louisiana Man
TTITLE19=Abilene
TTITLE20=A Maiden's Prayer
TTITLE21=Bud's Bounce
TTITLE22=Aint' It Amazing Gracie?
TTITLE23=My Heart Skips A Beat
TTITLE24=Together Again
TTITLE25=Close Up The Honky Tonks (Remake)
TTITLE26=Truck Drivin' Man
TTITLE27=I Don't Hear You
TTITLE28=Hello Trouble
TTITLE29=A-11
TTITLE30=Act Naturally
EXTD=
EXTT0=
EXTT1=
EXTT2=
EXTT3=
EXTT4=
EXTT5=
EXTT6=
EXTT7=
EXTT8=
EXTT9=
EXTT10=
EXTT11=
EXTT12=
EXTT13=
EXTT14=
EXTT15=
EXTT16=
EXTT17=
EXTT18=
EXTT19=
EXTT20=
EXTT21=
EXTT22=
EXTT23=
EXTT24=
EXTT25=
EXTT26=
EXTT27=
EXTT28=
EXTT29=
EXTT30=
PLAYORDER=
